<svg xmlns="http://www.w3.org/2000/svg" xmlns:xlink="http://www.w3.org/1999/xlink" width="500" zoomAndPan="magnify" viewBox="0 0 375 374.999991" height="500" preserveAspectRatio="xMidYMid meet" version="1.0"><defs><g/><clipPath id="id1"><path d="M 50.40625 22.632812 L 324.90625 22.632812 L 324.90625 297.882812 L 50.40625 297.882812 Z M 50.40625 22.632812 " clip-rule="nonzero"/></clipPath></defs><rect x="-37.5" width="450" fill="rgb(100%, 100%, 100%)" y="-37.499999" height="449.999989" fill-opacity="1"/><rect x="-37.5" width="450" fill="rgb(45.098877%, 45.098877%, 45.098877%)" y="-37.499999" height="449.999989" fill-opacity="1"/><rect x="-37.5" width="450" fill="rgb(100%, 100%, 100%)" y="-37.499999" height="449.999989" fill-opacity="1"/><rect x="-37.5" width="450" fill="rgb(45.098877%, 45.098877%, 45.098877%)" y="-37.499999" height="449.999989" fill-opacity="1"/><g clip-path="url(#id1)"><path fill="rgb(100%, 100%, 100%)" d="M 324.800781 149.675781 C 324.808594 149.574219 324.789062 149.476562 324.757812 149.386719 C 324.757812 149.382812 324.757812 149.375 324.757812 149.371094 L 297.402344 77.589844 C 297.398438 77.582031 297.386719 77.578125 297.382812 77.566406 C 297.335938 77.460938 297.277344 77.359375 297.179688 77.285156 L 237.023438 29.46875 C 236.929688 29.394531 236.816406 29.339844 236.6875 29.316406 C 236.679688 29.316406 236.671875 29.3125 236.660156 29.3125 L 187.558594 22.640625 C 187.464844 22.628906 187.363281 22.636719 187.265625 22.660156 L 163.863281 29.304688 L 163.199219 29.304688 C 163.066406 29.304688 162.9375 29.34375 162.828125 29.410156 C 162.828125 29.410156 162.828125 29.410156 162.824219 29.410156 L 162.230469 29.769531 L 104.628906 46.128906 C 104.609375 46.136719 104.597656 46.152344 104.582031 46.15625 C 104.503906 46.183594 104.433594 46.226562 104.371094 46.28125 C 104.34375 46.300781 104.320312 46.320312 104.296875 46.34375 C 104.28125 46.359375 104.265625 46.363281 104.253906 46.378906 L 53.8125 111.8125 C 53.796875 111.832031 53.792969 111.855469 53.78125 111.878906 C 53.761719 111.90625 53.742188 111.933594 53.726562 111.964844 C 53.71875 111.984375 53.714844 112.003906 53.707031 112.023438 C 53.695312 112.0625 53.6875 112.101562 53.683594 112.144531 C 53.679688 112.167969 53.667969 112.1875 53.664062 112.210938 L 50.488281 169.757812 C 50.488281 169.808594 50.488281 169.859375 50.496094 169.910156 L 55.148438 199.011719 C 55.152344 199.050781 55.171875 199.082031 55.183594 199.121094 C 55.191406 199.144531 55.191406 199.171875 55.199219 199.195312 C 55.203125 199.199219 55.210938 199.203125 55.210938 199.210938 C 55.214844 199.21875 55.214844 199.226562 55.21875 199.234375 L 78.703125 243.929688 C 78.742188 244.007812 78.796875 244.078125 78.863281 244.136719 L 106.410156 268.46875 C 106.453125 268.519531 106.503906 268.5625 106.558594 268.597656 L 138.40625 290.050781 C 138.496094 290.109375 138.59375 290.144531 138.699219 290.164062 L 188.671875 297.925781 L 188.679688 297.929688 C 188.683594 297.929688 188.683594 297.929688 188.6875 297.929688 C 188.726562 297.9375 188.761719 297.9375 188.800781 297.9375 C 188.847656 297.9375 188.898438 297.933594 188.945312 297.921875 C 188.945312 297.921875 188.949219 297.921875 188.949219 297.921875 C 188.953125 297.921875 188.953125 297.921875 188.953125 297.921875 C 188.953125 297.921875 188.953125 297.921875 188.957031 297.921875 C 188.960938 297.917969 188.964844 297.917969 188.96875 297.917969 C 188.96875 297.917969 188.96875 297.917969 188.972656 297.917969 C 188.972656 297.917969 188.976562 297.914062 188.972656 297.914062 C 188.972656 297.914062 188.976562 297.914062 188.976562 297.914062 L 188.980469 297.914062 C 188.980469 297.914062 188.980469 297.914062 188.984375 297.914062 C 188.984375 297.914062 188.988281 297.910156 188.988281 297.910156 C 188.992188 297.910156 188.992188 297.910156 188.996094 297.910156 L 270.652344 274.0625 C 270.683594 274.054688 270.699219 274.023438 270.726562 274.011719 C 270.804688 273.976562 270.867188 273.929688 270.929688 273.871094 C 270.957031 273.84375 271 273.835938 271.023438 273.808594 L 320.699219 208.339844 C 320.777344 208.234375 320.8125 208.117188 320.828125 207.996094 C 320.832031 207.980469 320.84375 207.96875 320.84375 207.957031 Z M 319.449219 207.335938 L 297.960938 212.765625 L 323.078125 153.820312 Z M 232.265625 198.988281 L 153.097656 171.148438 L 212.808594 128.183594 Z M 212.808594 125.867188 L 153.269531 86.945312 L 230.683594 64.816406 Z M 211.957031 127.023438 L 152.277344 169.96875 L 152.277344 88.015625 Z M 150.839844 170.21875 L 83.109375 137 L 150.839844 88.09375 Z M 165.507812 249.855469 L 100.945312 213.707031 L 151.074219 172.699219 Z M 152.496094 172.464844 L 231.832031 200.359375 L 166.992188 249.953125 Z M 232.699219 201.503906 L 236.882812 260.808594 L 168.285156 250.769531 Z M 233.621094 198.488281 L 214.199219 127.816406 L 280.253906 134.410156 Z M 281.171875 135.589844 L 295.824219 212.882812 L 234.554688 199.652344 Z M 296.996094 211.359375 L 282.515625 134.941406 L 323.125 150.039062 Z M 281.273438 132.167969 L 233.402344 64.863281 L 295.839844 78.390625 Z M 280.070312 132.949219 L 214.160156 126.367188 L 232.015625 65.390625 Z M 152.503906 85.671875 L 163.714844 31.082031 L 229.753906 63.585938 Z M 151.019531 85.75 L 100.363281 68.824219 L 162.164062 31.492188 Z M 150.003906 86.925781 L 82.890625 135.382812 L 99.167969 69.941406 Z M 81.3125 135.773438 L 55.429688 112.234375 L 97.351562 71.296875 Z M 98.015625 68.636719 L 61.191406 104.597656 L 103.144531 50.175781 Z M 80.859375 137.308594 L 56.515625 195.457031 L 55.128906 113.902344 Z M 81.523438 139.445312 L 98.675781 212.71875 L 56.816406 198.464844 Z M 82.765625 138.429688 L 150.238281 171.523438 L 100.109375 212.53125 Z M 164.628906 251.015625 L 107.550781 267.078125 L 100.578125 215.148438 Z M 166.113281 252.089844 L 187.382812 295.949219 L 109.3125 268.078125 Z M 189.066406 296.128906 L 167.734375 252.144531 L 235.8125 262.109375 Z M 238.285156 260.222656 L 234.109375 201.027344 L 295.113281 214.203125 Z M 294.875 216.246094 L 270.066406 272.46875 L 239.109375 261.40625 Z M 297.25 214.429688 L 318.320312 209.105469 L 273.585938 268.058594 Z M 282.4375 133.375 L 296.847656 80.171875 L 322.847656 148.398438 Z M 237.101562 31.367188 L 293.871094 76.492188 L 232.546875 63.203125 Z M 187.515625 24.085938 L 225.945312 29.304688 L 169.125 29.304688 Z M 235.738281 30.742188 L 231.167969 62.683594 L 166.285156 30.742188 Z M 99.835938 67.460938 L 105.410156 47.402344 L 157.5625 32.589844 Z M 51.925781 169.757812 L 54 132.1875 L 54.960938 188.761719 Z M 79.914062 243.144531 L 60.859375 206.875 L 102.320312 262.945312 Z M 57.800781 200.320312 L 99.015625 214.355469 L 105.863281 265.316406 Z M 112.078125 270.589844 L 181.40625 295.339844 L 139.078125 288.765625 Z M 237.777344 262.457031 L 268.125 273.304688 L 192.554688 295.375 Z M 237.777344 262.457031 " fill-opacity="1" fill-rule="nonzero"/></g><g fill="rgb(36.079407%, 88.238525%, 90.19928%)" fill-opacity="1"><g transform="translate(112.659079, 353.92231)"><g><path d="M 38.765625 -9.1875 L 38.765625 0 L 2.046875 0 L 2.046875 -7.265625 L 22.71875 -31.796875 L 2.578125 -31.796875 L 2.578125 -40.984375 L 37.875 -40.984375 L 37.875 -33.71875 L 17.21875 -9.1875 Z M 38.765625 -9.1875 "/></g></g></g><g fill="rgb(36.079407%, 88.238525%, 90.19928%)" fill-opacity="1"><g transform="translate(164.114259, 353.92231)"><g><path d="M 37 -8.953125 L 37 0 L 4.09375 0 L 4.09375 -40.984375 L 36.234375 -40.984375 L 36.234375 -32.03125 L 15.578125 -32.03125 L 15.578125 -25.109375 L 33.78125 -25.109375 L 33.78125 -16.453125 L 15.578125 -16.453125 L 15.578125 -8.953125 Z M 37 -8.953125 "/></g></g></g><g fill="rgb(36.079407%, 88.238525%, 90.19928%)" fill-opacity="1"><g transform="translate(215.159695, 353.92231)"><g><path d="M 43.09375 -40.984375 L 43.09375 0 L 33.546875 0 L 15.453125 -21.84375 L 15.453125 0 L 4.09375 0 L 4.09375 -40.984375 L 13.640625 -40.984375 L 31.734375 -19.140625 L 31.734375 -40.984375 Z M 43.09375 -40.984375 "/></g></g></g></svg>